<?xml version="1.0" encoding="UTF-8"?>
<svg width="700pt" height="700pt" version="1.1" viewBox="0 0 700 700" xmlns="http://www.w3.org/2000/svg">
 <path d="m268.95 117.89h29.473v338.95h-29.473z"/>
 <path transform="matrix(14.737 0 0 14.737 70 0)" d="m27.5 8v26h-17v-26" fill="none" stroke="#000" stroke-miterlimit="10" stroke-width="2"/>
 <path d="m335.26 117.89h29.473v338.95h-29.473z"/>
 <path d="m401.58 117.89h29.473v338.95h-29.473z"/>
 <path d="m165.79 44.211c-40.629 0-73.684 33.055-73.684 73.684 0 40.629 33.055 73.684 73.684 73.684 40.629 0 73.684-33.055 73.684-73.684h-29.473c0 24.418-19.793 44.211-44.211 44.211-24.418 0-44.211-19.793-44.211-44.211s19.793-44.211 44.211-44.211z"/>
 <path d="m165.79 44.211h368.42v29.473h-368.42z"/>
 <path d="m187.89 117.89c0 12.207-9.8984 22.105-22.105 22.105-12.207 0-22.105-9.8984-22.105-22.105s9.8984-22.105 22.105-22.105c12.207 0 22.105 9.8984 22.105 22.105"/>
 <path d="m556.32 117.89c0 12.207-9.8984 22.105-22.105 22.105-12.207 0-22.105-9.8984-22.105-22.105s9.8984-22.105 22.105-22.105c12.207 0 22.105 9.8984 22.105 22.105"/>
 <path d="m534.21 73.684c24.418 0 44.211 19.793 44.211 44.211s-19.793 44.211-44.211 44.211c-24.418 0-44.211-19.793-44.211-44.211h-29.473c0 40.629 33.055 73.684 73.684 73.684 40.629 0 73.684-33.055 73.684-73.684 0-40.629-33.055-73.684-73.684-73.684z"/>
 <path d="m268.95 117.89h29.473v338.95h-29.473z"/>
 <path transform="matrix(14.737 0 0 14.737 70 0)" d="m27.5 8v26h-17v-26" fill="none" stroke="#000" stroke-miterlimit="10" stroke-width="2"/>
 <path d="m335.26 117.89h29.473v338.95h-29.473z"/>
 <path d="m401.58 117.89h29.473v338.95h-29.473z"/>
 <path d="m165.79 44.211c-40.629 0-73.684 33.055-73.684 73.684 0 40.629 33.055 73.684 73.684 73.684 40.629 0 73.684-33.055 73.684-73.684h-29.473c0 24.418-19.793 44.211-44.211 44.211-24.418 0-44.211-19.793-44.211-44.211s19.793-44.211 44.211-44.211z"/>
 <path d="m165.79 44.211h368.42v29.473h-368.42z"/>
 <path d="m534.21 73.684c24.418 0 44.211 19.793 44.211 44.211s-19.793 44.211-44.211 44.211c-24.418 0-44.211-19.793-44.211-44.211h-29.473c0 40.629 33.055 73.684 73.684 73.684 40.629 0 73.684-33.055 73.684-73.684 0-40.629-33.055-73.684-73.684-73.684z"/>
</svg>
